<svg width="23" height="23" viewBox="0 0 23 23" fill="none" xmlns="http://www.w3.org/2000/svg">
<path d="M22.6997 11.3568C22.6997 5.37312 17.6157 0.525391 11.3499 0.525391C5.07978 0.525391 0 5.37312 0 11.3568C0 16.7617 4.14909 21.2431 9.57646 22.0548V14.4884H6.6943V11.3575H9.57646V8.96982C9.57646 6.25588 11.2683 4.75708 13.8617 4.75708C15.1038 4.75708 16.4041 4.96829 16.4041 4.96829V7.63349H14.9705C13.5631 7.63349 13.1233 8.46954 13.1233 9.3259V11.3568H16.2708L15.765 14.4877H13.1233V22.0541C18.5464 21.2425 22.6997 16.761 22.6997 11.3561V11.3568Z" fill="white"/>
</svg>
