<svg width="24" height="23" viewBox="0 0 24 23" fill="none" xmlns="http://www.w3.org/2000/svg">
<path d="M8.00096 11.5001C8.00096 9.47975 9.79134 7.84154 12.0005 7.84154C14.2096 7.84154 16.001 9.47975 16.001 11.5001C16.001 13.5204 14.2096 15.1586 12.0005 15.1586C9.79134 15.1586 8.00096 13.5204 8.00096 11.5001ZM5.83838 11.5001C5.83838 14.6125 8.59714 17.1354 12.0005 17.1354C15.4038 17.1354 18.1626 14.6125 18.1626 11.5001C18.1626 8.38764 15.4038 5.8647 12.0005 5.8647C8.59714 5.8647 5.83838 8.38764 5.83838 11.5001ZM16.9665 5.64125C16.9662 6.36859 17.6106 6.95845 18.406 6.95874C19.2013 6.95903 19.8463 6.36964 19.8466 5.64231C19.8469 4.91497 19.2024 4.32511 18.4071 4.32482C17.6122 4.32516 16.9672 4.91426 16.9665 5.64125ZM7.15229 20.4332C5.98229 20.3844 5.34636 20.2062 4.92375 20.0556C4.36347 19.8562 3.96371 19.6186 3.54341 19.2347C3.1231 18.8509 2.86293 18.4856 2.64577 17.9733C2.48103 17.587 2.28614 17.0052 2.23295 15.9352C2.17477 14.7784 2.16316 14.4309 2.16316 11.5001C2.16316 8.56938 2.17573 8.22285 2.23295 7.06506C2.28624 5.99508 2.48256 5.41447 2.64577 5.02702C2.86389 4.51464 3.12368 4.14905 3.54341 3.76467C3.96313 3.3803 4.36251 3.14237 4.92375 2.94377C5.34617 2.79311 5.98229 2.61488 7.15229 2.56624C8.41723 2.51303 8.79722 2.50241 12.0005 2.50241C15.2037 2.50241 15.5841 2.51391 16.8501 2.56624C18.0201 2.61497 18.655 2.79451 19.0787 2.94377C19.6389 3.14237 20.0387 3.38082 20.459 3.76467C20.8793 4.14852 21.1385 4.51464 21.3566 5.02702C21.5214 5.41333 21.7163 5.99508 21.7694 7.06506C21.8276 8.22285 21.8392 8.56938 21.8392 11.5001C21.8392 14.4309 21.8276 14.7774 21.7694 15.9352C21.7162 17.0052 21.5203 17.5868 21.3566 17.9733C21.1385 18.4856 20.8787 18.8512 20.459 19.2347C20.0393 19.6182 19.6389 19.8562 19.0787 20.0556C18.6562 20.2063 18.0201 20.3845 16.8501 20.4332C15.5852 20.4864 15.2052 20.497 12.0005 20.497C8.79578 20.497 8.41685 20.4864 7.15229 20.4332ZM7.05292 0.591853C5.7754 0.645058 4.90244 0.830311 4.14007 1.1016C3.35053 1.38177 2.68216 1.75763 2.01426 2.36747C1.34636 2.97731 0.936421 3.58952 0.630073 4.31156C0.333421 5.0092 0.130853 5.8071 0.0726749 6.97542C0.0135365 8.14558 0 8.51969 0 11.5001C0 14.4804 0.0135365 14.8545 0.0726749 16.0247C0.130853 17.1931 0.333421 17.9909 0.630073 18.6885C0.936421 19.4102 1.34645 20.0231 2.01426 20.6326C2.68206 21.2422 3.35053 21.6176 4.14007 21.8985C4.90388 22.1698 5.7754 22.3551 7.05292 22.4083C8.33313 22.4615 8.74153 22.4747 12.0005 22.4747C15.2594 22.4747 15.6685 22.4623 16.948 22.4083C18.2257 22.3551 19.098 22.1698 19.8609 21.8985C20.6499 21.6176 21.3188 21.2425 21.9867 20.6326C22.6546 20.0228 23.0637 19.4102 23.3709 18.6885C23.6675 17.9909 23.8711 17.193 23.9283 16.0247C23.9865 14.8536 24 14.4804 24 11.5001C24 8.51969 23.9865 8.14558 23.9283 6.97542C23.8701 5.80701 23.6675 5.00876 23.3709 4.31156C23.0637 3.58996 22.6535 2.97827 21.9867 2.36747C21.3199 1.75666 20.6499 1.38177 19.8619 1.1016C19.098 0.830311 18.2256 0.64418 16.949 0.591853C15.6695 0.538648 15.2604 0.525391 12.0014 0.525391C8.74249 0.525391 8.33313 0.53777 7.05292 0.591853Z" fill="url(#paint0_radial_15_186)"/>
<defs>
<radialGradient id="paint0_radial_15_186" cx="0" cy="0" r="1" gradientUnits="userSpaceOnUse" gradientTransform="translate(51.0187 353.374) scale(501.3 458.466)">
<stop offset="0.09" stop-color="#FA8F21"/>
<stop offset="0.78" stop-color="#D82D7E"/>
</radialGradient>
</defs>
</svg>
