<svg width="30" height="22" viewBox="0 0 30 22" fill="none" xmlns="http://www.w3.org/2000/svg">
<path d="M28.7939 4.41399C28.4674 3.2408 27.5056 2.31695 26.2842 2.00341C24.0705 1.43359 15.1936 1.43359 15.1936 1.43359C15.1936 1.43359 6.31666 1.43359 4.10289 2.00341C2.88155 2.31695 1.91961 3.2408 1.59318 4.41399C1 6.54032 1 10.9768 1 10.9768C1 10.9768 1 15.4132 1.59318 17.5397C1.91961 18.7128 2.88155 19.6366 4.10289 19.9503C6.31666 20.52 15.1936 20.52 15.1936 20.52C15.1936 20.52 24.0705 20.52 26.2842 19.9503C27.5056 19.6366 28.4674 18.7128 28.7939 17.5397C29.3871 15.4132 29.3871 10.9768 29.3871 10.9768C29.3871 10.9768 29.3871 6.54032 28.7939 4.41399Z" stroke="white" stroke-width="1.12612" stroke-miterlimit="10"/>
<path d="M12.2903 15.0046L19.7096 10.9769L12.2903 6.94873V15.0046Z" stroke="white" stroke-width="1.12612" stroke-miterlimit="10" stroke-linecap="round" stroke-linejoin="round"/>
</svg>
