<?xml version="1.0" encoding="UTF-8"?>
<svg id="Layer_2" data-name="Layer 2" xmlns="http://www.w3.org/2000/svg" viewBox="0 0 565.37 351.9">
  <defs>
    <style>
      .cls-1 {
        fill: #fff;
      }
    </style>
  </defs>
  <g id="Layer_1-2" data-name="Layer 1">
    <g>
      <g>
        <path class="cls-1" d="m42.82,83.62h.67c4.02-5.69,9.71-12.73,14.4-18.42L105.45,9.27h35.5l-62.63,66.65,71.34,95.45h-35.84l-55.93-77.7-15.07,16.75v60.95H13.69L4.24,4.1l43,1-4.41,78.53Z"/>
        <path class="cls-1" d="m157.65,175.37h-45.87l-54.23-75.33-10.72,11.92v63.42H9.91L0,0l51.46,1.2-3.96,70.49c2.5-3.16,5.05-6.28,7.31-9.02L103.6,5.27h46.6l-66.66,70.94,74.11,99.16Zm-41.77-8h25.8l-68.57-91.74,58.59-62.35h-24.4l-46.36,54.52c-4.47,5.43-10.17,12.45-14.18,18.14l-1.19,1.69h-6.97l4.42-78.62-34.54-.8,8.99,159.17h21.36v-58.49l19.42-21.58,57.63,80.06Z"/>
      </g>
      <g>
        <path class="cls-1" d="m266.54,171.37l-2.34-20.43h-1c-9.04,12.73-26.46,24.11-49.57,24.11-32.82,0-49.57-23.11-49.57-46.55,0-39.19,34.83-60.62,97.46-60.29v-3.35c0-13.4-3.68-37.51-36.84-37.51-15.07,0-30.81,4.69-42.2,12.06l-6.7-19.42c13.4-8.71,32.82-14.4,53.25-14.4,49.57,0,61.62,33.83,61.62,66.31v60.62c0,14.07.67,27.8,2.68,38.85h-26.79Zm-4.35-82.72c-32.15-.67-68.66,5.02-68.66,36.5,0,19.09,12.73,28.13,27.8,28.13,21.1,0,34.5-13.4,39.19-27.13,1-3.01,1.67-6.36,1.67-9.38v-28.13Z"/>
        <path class="cls-1" d="m213.62,179.06c-16.37,0-30.19-5.44-39.99-15.73-8.76-9.2-13.58-21.57-13.58-34.83,0-15.79,5.29-29.06,15.73-39.45,16.22-16.13,43.71-24.48,81.73-24.83-.21-21.81-11.26-32.87-32.84-32.87-14.02,0-28.98,4.27-40.03,11.42l-4.29,2.77-9.38-27.21,2.62-1.7c14.71-9.56,34.92-15.05,55.43-15.05,23.88,0,41.59,7.6,52.62,22.6,8.63,11.73,13,27.78,13,47.71v60.62c0,15.98.86,28.46,2.61,38.13l.86,4.72h-35.15l-1.8-15.73c-11.75,12.28-28.96,19.41-47.54,19.41Zm46.47-106.84c-36.67,0-63.85,7.77-78.67,22.52-8.87,8.82-13.37,20.19-13.37,33.77,0,20.5,14.26,42.55,45.57,42.55,19.02,0,36.33-8.38,46.31-22.43l1.2-1.68h6.64l2.34,20.43h18.53c-1.33-9.37-1.98-20.83-1.98-34.85v-60.62c0-41.35-19.39-62.31-57.62-62.31-17.52,0-35.35,4.5-48.43,12.13l4.05,11.75c11.7-6.38,26.29-10.11,40.02-10.11,26.34,0,40.84,14.74,40.84,41.51v7.37l-4.02-.02c-.47,0-.94,0-1.4,0Zm-38.77,85.07c-19.32,0-31.8-12.61-31.8-32.13,0-9.96,3.33-18.26,9.9-24.7,11.36-11.12,32.49-16.44,62.85-15.81l3.92.08v32.05c0,3.23-.67,7.01-1.88,10.64-4.71,13.79-18.78,29.86-42.98,29.86Zm36.05-64.69c-25.55,0-43.15,4.56-52.36,13.58-5.04,4.94-7.49,11.15-7.49,18.98,0,15.11,8.9,24.13,23.8,24.13,19.97,0,31.55-13.16,35.4-24.42.94-2.81,1.46-5.7,1.46-8.08v-24.18c-.27,0-.54,0-.81,0Z"/>
      </g>
      <g>
        <path class="cls-1" d="m338.21,59.85c0-19.09-.33-35.5-1.34-50.57h25.79l1,31.82h1.34c7.37-21.77,25.12-35.5,44.88-35.5,3.35,0,5.69.33,8.37,1v27.8c-3.01-.67-6.03-1-10.05-1-20.76,0-35.5,15.74-39.52,37.85-.67,4.02-1.34,8.71-1.34,13.73v86.41h-29.14V59.85Z"/>
        <path class="cls-1" d="m371.34,175.37h-37.14V59.85c0-20.99-.41-36.5-1.33-50.31l-.28-4.27h33.94l.68,21.63c9.61-15.72,25.3-25.32,42.67-25.32,3.44,0,6.15.33,9.34,1.12l3.03.76v35.91l-4.87-1.08c-2.87-.64-5.61-.91-9.18-.91-18.07,0-31.71,13.24-35.58,34.56-.62,3.75-1.27,8.28-1.27,13.02v90.41Zm-29.14-8h21.14v-82.41c0-5.31.7-10.26,1.39-14.39,4.55-25.04,21.61-41.19,43.47-41.19,2.19,0,4.16.1,6.05.3V9.87c-1.37-.2-2.73-.28-4.37-.28-18.22,0-34.35,12.87-41.09,32.78l-.92,2.72h-8.08l-1-31.82h-17.66c.75,12.93,1.08,27.53,1.08,46.57v107.53Z"/>
      </g>
      <g>
        <path class="cls-1" d="m559.92,165.34c-7.7,4.02-24.78,9.38-46.55,9.38-48.9,0-80.71-33.16-80.71-82.72S466.81,5.92,519.73,5.92c17.42,0,32.82,4.35,40.86,8.37l-6.7,22.77c-7.03-4.02-18.08-7.7-34.16-7.7-37.18,0-57.27,27.46-57.27,61.29,0,37.51,24.11,60.62,56.27,60.62,16.75,0,27.8-4.35,36.17-8.04l5.02,22.1Z"/>
        <path class="cls-1" d="m513.36,178.72c-50.67,0-84.71-34.85-84.71-86.72,0-25.48,8.83-48.41,24.86-64.57,16.55-16.69,39.45-25.51,66.22-25.51,18.49,0,34.53,4.74,42.65,8.8l2.99,1.5-9.07,30.84-4.39-2.51c-5.73-3.27-15.96-7.18-32.18-7.18-32.36,0-53.27,22.49-53.27,57.29s21,56.62,52.27,56.62c15.74,0,26.09-3.97,34.56-7.7l4.44-1.95,6.78,29.84-2.73,1.43c-8.69,4.54-26.59,9.83-48.4,9.83Zm6.36-168.8c-49.69,0-83.08,32.98-83.08,82.07s30.11,78.72,76.71,78.72c18.23,0,33.32-3.85,41.94-7.61l-3.26-14.33c-8.89,3.56-19.27,6.5-33.33,6.5-16.96,0-32.26-6.21-43.08-17.47-11.25-11.71-17.19-28.02-17.19-47.15,0-39.05,24.62-65.29,61.27-65.29,14.44,0,24.77,2.89,31.68,5.97l4.36-14.84c-7.94-3.28-21.04-6.58-36.04-6.58Z"/>
      </g>
    </g>
    <rect class="cls-1" x="152.63" y="259.04" width="282.62" height="28.26"/>
    <rect class="cls-1" x="377.71" y="253.99" width="155.44" height="40.37" rx="2.89" ry="2.89" transform="translate(729.61 -181.26) rotate(90)"/>
    <rect class="cls-1" x="432.97" y="254.76" width="128" height="40.37" rx="2.89" ry="2.89" transform="translate(771.92 -222.02) rotate(90)"/>
    <rect class="cls-1" x="504.89" y="264.05" width="50.47" height="24.22" rx="1.73" ry="1.73" transform="translate(806.28 -253.97) rotate(90)"/>
    <rect class="cls-1" x="53.93" y="253.28" width="155.44" height="40.37" rx="2.89" ry="2.89" transform="translate(405.12 141.82) rotate(90)"/>
    <rect class="cls-1" x="26.42" y="254.05" width="128" height="40.37" rx="2.89" ry="2.89" transform="translate(364.66 183.83) rotate(90)"/>
    <rect class="cls-1" x="31.72" y="263.34" width="50.47" height="24.22" rx="1.73" ry="1.73" transform="translate(332.41 218.49) rotate(90)"/>
  </g>
</svg>